<?xml version="1.0" encoding="UTF-8"?>
<svg viewBox="0 0 512 512" xmlns="http://www.w3.org/2000/svg" fill="currentColor">
  <path d="M487.4 315.7l-42.2-24.4c2.9-15.3 4.4-31.2 4.4-47.3s-1.5-32-4.4-47.3l42.2-24.4c5.5-3.2 8.1-9.7 6.4-15.7-11.7-41.3-34.6-78.8-65.3-108.1-4.8-4.7-12.3-5.7-18.2-2.4l-42.2 24.4c-24.7-20.1-53-35.5-83.9-44.9V24c0-6.6-5.4-12-12-12h-80c-6.6 0-12 5.4-12 12v48.2c-30.9 9.4-59.2 24.8-83.9 44.9L101.7 92.7c-5.9-3.3-13.4-2.3-18.2 2.4-30.7 29.3-53.6 66.8-65.3 108.1-1.7 6.1.9 12.6 6.4 15.7l42.2 24.4c-2.9 15.3-4.4 31.2-4.4 47.3s1.5 32 4.4 47.3l-42.2 24.4c-5.5 3.2-8.1 9.7-6.4 15.7 11.7 41.3 34.6 78.8 65.3 108.1 4.8 4.7 12.3 5.7 18.2 2.4l42.2-24.4c24.7 20.1 53 35.5 83.9 44.9V488c0 6.6 5.4 12 12 12h80c6.6 0 12-5.4 12-12v-48.2c30.9-9.4 59.2-24.8 83.9-44.9l42.2 24.4c5.9 3.3 13.4 2.3 18.2-2.4 30.7-29.3 53.6-66.8 65.3-108.1 1.7-6.1-.9-12.6-6.4-15.7zM256 336c-44.2 0-80-35.8-80-80s35.8-80 80-80 80 35.8 80 80-35.8 80-80 80z"/>
</svg> 